<svg xmlns="http://www.w3.org/2000/svg" width="256" height="256"><path fill="#fdfdfd" fill-opacity=".016" fill-rule="evenodd" d="M0 128.004v128.004l128.25-.254 128.25-.254.254-127.75L257.008 0H0zm.485.496c0 70.4.119 99.053.265 63.672s.146-92.98 0-128S.485 58.1.485 128.5"/><path fill="#fdfdfd" fill-opacity=".091" fill-rule="evenodd" d="M86 39.543c-7.672 2.145-18.692 7.759-24.258 12.359C47.46 63.704 38 82.379 38 98.771v5.983l-4.908 2.111C20.159 112.429 8.495 125.086 3.019 139.5.267 146.743-.779 162.494.897 171.463c3.957 21.181 22.137 39.937 43.104 44.471 4.072.881 27.426 1.109 89.999.878l84.5-.312 7.524-3.593c13.169-6.29 23.631-18.062 28.174-31.701 1.391-4.175 2.006-9.463 2.292-19.706.215-7.7.063-12.2-.338-10l-.729 4-.82-3.5c-1.541-6.579-7.839-17.05-13.817-22.974-6.006-5.95-18.299-13.026-22.63-13.026-1.913 0-2.096-.352-1.425-2.75.423-1.513.768-6.8.767-11.75-.002-8.052-.34-9.713-3.209-15.775-7.624-16.106-24.389-24.998-41.576-22.054-3.458.592-8.188 1.995-10.511 3.117l-4.224 2.041-2.874-4.165c-6.909-10.011-19.422-19.385-31.768-23.799-7.904-2.826-29.252-3.581-37.336-1.322M75.2 98.2c-.712.712-1.2 4.14-1.2 8.429 0 9.424.915 10.371 10.015 10.371 5.967 0 7.076-.292 8.428-2.223 2.141-3.055 2.131-14.061-.014-16.206-1.944-1.944-15.367-2.233-17.229-.371m31.435 3.873c-2.982 2.345-3.365 5.439-1.078 8.704C107.113 113 107.116 113 141 113s33.887 0 35.443-2.223c2.194-3.132 1.94-5.485-.898-8.322L173.091 100H141.18c-30.769 0-32.005.074-34.545 2.073M75.2 132.2c-1.593 1.593-1.593 15.007 0 16.6.727.727 4.259 1.2 8.965 1.2 9.147 0 9.835-.665 9.835-9.5s-.688-9.5-9.835-9.5c-4.706 0-8.238.473-8.965 1.2M106 136c-1.1 1.1-2 3.125-2 4.5s.9 3.4 2 4.5c1.919 1.919 3.333 2 34.809 2 36.739 0 36.591.026 36.591-6.5s.148-6.5-36.591-6.5c-31.476 0-32.89.081-34.809 2M.37 159c0 5.775.165 8.137.367 5.25s.202-7.613 0-10.5S.37 153.225.37 159m75.38 6.08c-1.428.832-1.75 2.443-1.75 8.77 0 4.694.473 8.223 1.2 8.95.709.709 4.121 1.2 8.345 1.2C92.656 184 94 182.765 94 174.394c0-8.861-1.458-10.402-9.807-10.364-3.681.017-7.48.489-8.443 1.05m29.816 5.129c-2.085 2.977-1.979 6.108.278 8.15 1.657 1.5 5.258 1.641 35.712 1.404l33.868-.263 1.538-2.75c1.384-2.475 1.384-3.025 0-5.5l-1.538-2.75-34.146-.263-34.146-.263z"/><path fill="#fdfdfd" fill-opacity=".277" fill-rule="evenodd" d="M92.5 38.601C75.849 41.03 57.233 53.04 48.48 67c-5.93 9.456-10.372 23.54-10.445 33.113L38 104.725l-6.743 3.32C22.345 112.432 10.73 124.015 6.232 133c-6.291 12.565-7.821 30.245-3.765 43.5 5.828 19.044 22.155 34.483 41.31 39.061 8.471 2.025 166.32 2.055 173.913.033 17.667-4.703 32.155-19.247 36.952-37.094.74-2.75 1.551-10.175 1.803-16.5.253-6.325.126-9.925-.281-8l-.739 3.5-.804-4c-3.055-15.205-17.615-31.176-32.931-36.123-5.652-1.826-5.794-1.959-5.188-4.877 1.618-7.8 1.626-13.306.027-19.5-3.68-14.259-12.202-23.219-26.574-27.937-9.477-3.111-18.221-2.352-28.364 2.461-3.445 1.635-3.91 1.658-4.705.237C150.623 56.57 135.121 44.822 121 40.565c-5.416-1.632-22.638-2.819-28.5-1.964M75.25 97.662c-1.683.679-1.727 16.461-.05 18.138 1.862 1.862 15.285 1.573 17.229-.371s2.233-15.367.371-17.229c-1.181-1.181-14.914-1.602-17.55-.538m30.973 3.895c-1.516 1.061-2.218 2.572-2.208 4.75.036 7.496.982 7.693 36.985 7.693 30.749 0 34.18-.322 36.235-3.4 1.402-2.1.754-6.611-1.235-8.6-1.919-1.919-3.333-2-34.777-2-28.048 0-33.099.225-35 1.557M75.75 131.08c-1.447.843-1.75 2.475-1.75 9.435 0 9.994.482 10.485 10.279 10.485 8.544 0 9.721-1.292 9.721-10.674 0-9.1-1.212-10.338-10.079-10.296-3.531.017-7.208.489-8.171 1.05m29.905 4.749c-2.197 2.427-2.105 7.454.174 9.516 1.625 1.471 5.568 1.655 35.443 1.655 33.603 0 33.615-.001 35.171-2.223.856-1.222 1.557-3.147 1.557-4.277s-.701-3.055-1.557-4.277C174.887 134 174.881 134 141.098 134c-31.463 0-33.902.126-35.443 1.829M.343 159.5c.003 4.4.179 6.076.39 3.724s.209-5.952-.006-8-.388-.124-.384 4.276m74.857 5.7c-1.603 1.603-1.603 15.997 0 17.6.723.723 4.222 1.2 8.8 1.2s8.077-.477 8.8-1.2c1.862-1.862 1.573-15.285-.371-17.229s-15.367-2.233-17.229-.371M106 169c-1.111 1.111-2 3.333-2 5s.889 3.889 2 5c1.919 1.919 3.333 2 35 2s33.081-.081 35-2c2.662-2.662 2.572-7.389-.189-9.961-2.11-1.966-3.361-2.039-35-2.039-31.478 0-32.892.081-34.811 2"/><path fill="#fdfdfd" fill-opacity=".23" fill-rule="evenodd" d="M93.5 38.614c-1.1.283-4.555 1.143-7.677 1.911-19.772 4.862-36.14 19.891-43.376 39.825-2.479 6.83-4.587 19.399-3.774 22.508.401 1.533-.597 2.418-5.001 4.435-23.468 10.744-37.522 37.426-32.608 61.908 4.328 21.561 17.657 37.121 38.6 45.06 5.822 2.207 6.036 2.213 86.836 2.519 56.396.214 83.021-.032 87.653-.81 14.957-2.513 29.419-13.434 36.151-27.298 3.911-8.054 6.795-22.211 6.539-32.098l-.157-6.074-.593 5-.593 5-1.22-5.86c-3.613-17.35-16.858-31.937-33.868-37.299-4.795-1.512-5.34-1.953-4.671-3.776.418-1.136.759-6.565.759-12.065 0-8.894-.305-10.622-2.761-15.621-4.132-8.414-9.844-14.313-17.521-18.092-6.274-3.089-7.309-3.286-17.197-3.272-9.384.013-11.111.305-15.982 2.705-3.004 1.48-5.519 2.598-5.588 2.485-8.952-14.522-22.781-25.142-38.075-29.239-6.017-1.612-22.289-2.777-25.876-1.852M75 98c-2.615 2.615-2.918 14.939-.429 17.429 1.954 1.953 16.353 2.247 18.229.371.724-.724 1.2-4.232 1.2-8.845C94 97.11 92.954 96 83.671 96c-5.338 0-7.071.4-8.671 2m30.655 3.829c-.91 1.006-1.655 3.455-1.655 5.443 0 6.68.265 6.728 37 6.728 36.891 0 37-.02 37-6.902 0-7.203.55-7.098-37.174-7.098-31.2 0-33.63.126-35.171 1.829m-31 30c-1.209 1.336-1.655 3.719-1.655 8.845C73 149.832 74.175 151 83.394 151 93.55 151 94 150.555 94 140.5c0-10.077-.434-10.5-10.779-10.5-5.425 0-7.267.393-8.566 1.829m31.568 2.728c-1.622 1.135-2.219 2.556-2.208 5.25.034 8.07.587 8.193 36.985 8.193 36.05 0 36.949-.188 36.985-7.75.009-1.933-.795-4.06-1.985-5.25-1.919-1.919-3.333-2-34.777-2-28.048 0-33.099.225-35 1.557M.336 159c0 4.125.177 5.813.392 3.75s.216-5.437 0-7.5c-.215-2.062-.392-.375-.392 3.75m73.699 6.934c-.569 1.064-1.035 4.889-1.035 8.5C73 183.461 74.579 185 83.845 185 92.966 185 94 183.867 94 173.871c0-4.477-.481-7.952-1.2-8.671-.74-.74-4.37-1.2-9.465-1.2-7.148 0-8.405.261-9.3 1.934m31.62 2.895c-2.237 2.471-2.138 8.424.174 10.516 1.625 1.471 5.561 1.655 35.345 1.655 37.599 0 36.826.153 36.826-7.272 0-6.691-.205-6.728-37.568-6.728-30.818 0-33.237.127-34.777 1.829"/></svg>