<svg xmlns="http://www.w3.org/2000/svg" width="256" height="256"><path fill="#fdfdfd" fill-opacity=".016" fill-rule="evenodd" d="M0 128.004v128.004l128.25-.254 128.25-.254.254-127.75L257.008 0H0zm.485.496c0 70.4.119 99.053.265 63.672s.146-92.98 0-128S.485 58.1.485 128.5"/><path fill="#fdfdfd" fill-opacity=".247" fill-rule="evenodd" d="M87 39.587c-3.025.8-9.24 3.238-13.812 5.418-11.429 5.448-22.28 16.321-28.127 28.183-4.289 8.702-7.014 19.118-7.044 26.925L38 104.725l-6.75 3.292c-4.734 2.308-9.018 5.578-14.343 10.946C5.26 130.704 0 143.316 0 159.5c0 16.175 5.256 28.783 16.907 40.554 7.986 8.069 17.571 13.682 27.093 15.865 2.893.664 34.013 1.041 87.145 1.057 79.652.023 82.877-.048 89.072-1.961 16.477-5.09 29.603-18.885 34.39-36.146.819-2.953 1.66-10.994 1.869-17.869s.069-10.475-.311-8l-.691 4.5-.668-3.713c-2.678-14.882-17.948-31.67-33.219-36.522l-5.556-1.765.735-3.5c.404-1.925.679-7.221.612-11.769-.105-7.084-.565-9.162-3.209-14.5-6.712-13.546-20.586-22.676-34.525-22.719-4.783-.015-15.227 2.63-18.863 4.777-1.496.883-2.874 1.405-3.062 1.158-.189-.246-2.07-2.849-4.181-5.785-7.679-10.681-21.879-20.002-35.998-23.63-7.469-1.92-23.185-1.891-30.54.055M75.2 98.2c-.712.712-1.2 4.14-1.2 8.429 0 9.424.915 10.371 10.015 10.371 5.967 0 7.076-.292 8.428-2.223 2.141-3.055 2.131-14.061-.014-16.206-1.944-1.944-15.367-2.233-17.229-.371m31.435 3.873c-2.982 2.345-3.365 5.439-1.078 8.704C107.113 113 107.116 113 141 113s33.887 0 35.443-2.223c2.194-3.132 1.94-5.485-.898-8.322L173.091 100H141.18c-30.769 0-32.005.074-34.545 2.073M75.2 132.2c-1.593 1.593-1.593 15.007 0 16.6.727.727 4.259 1.2 8.965 1.2 9.147 0 9.835-.665 9.835-9.5s-.688-9.5-9.835-9.5c-4.706 0-8.238.473-8.965 1.2M106 136c-1.1 1.1-2 3.125-2 4.5s.9 3.4 2 4.5c1.919 1.919 3.333 2 34.809 2 36.739 0 36.591.026 36.591-6.5s.148-6.5-36.591-6.5c-31.476 0-32.89.081-34.809 2M.365 159.5c.003 5.5.171 7.622.373 4.716.203-2.905.201-7.405-.004-10S.363 154 .365 159.5m75.385 5.58c-1.428.832-1.75 2.443-1.75 8.77 0 4.694.473 8.223 1.2 8.95.709.709 4.121 1.2 8.345 1.2C92.656 184 94 182.765 94 174.394c0-8.861-1.458-10.402-9.807-10.364-3.681.017-7.48.489-8.443 1.05m29.816 5.129c-2.031 2.9-1.98 5.065.184 7.704 1.733 2.114 2.086 2.132 35.712 1.861l33.962-.274 1.538-2.75c1.384-2.475 1.384-3.025 0-5.5l-1.538-2.75-34.146-.263-34.146-.263z"/><path fill="#fdfdfd" fill-opacity=".413" fill-rule="evenodd" d="M92.5 38.632c-6.442.996-18.662 5.673-24.192 9.26C52.08 58.415 41.421 75.246 39.056 94.079c-.478 3.807-.669 7.709-.425 8.671.341 1.343-1.367 2.673-7.344 5.718-9.45 4.816-19.313 14.352-24.065 23.267-12.207 22.903-8.204 50.214 10.032 68.45 7.455 7.455 18.846 13.73 28.545 15.725 3.567.734 31.533 1.09 85.54 1.09 88.183 0 85.995.137 97.769-6.138 7.95-4.238 18.22-15.094 21.806-23.051 3.71-8.234 5.102-15.068 5.562-27.311.232-6.184.115-8.092-.307-5l-.683 5-.744-4.897c-1.241-8.168-7.163-19.066-14.106-25.961-5.809-5.768-15.301-11.516-21.649-13.109l-2.512-.631.012-12.201c.012-11.136-.219-12.696-2.647-17.876-3.725-7.946-9.87-14.222-17.696-18.075-6.181-3.043-7.274-3.25-17.125-3.25-9.338 0-11.119.295-15.814 2.618l-5.29 2.618-2.846-4.118c-4.2-6.079-14.79-15.795-21.069-19.33-8.53-4.802-18.202-7.397-29-7.782-5.225-.186-10.85-.129-12.5.126m-17.25 59.03c-1.683.679-1.727 16.461-.05 18.138 1.862 1.862 15.285 1.573 17.229-.371s2.233-15.367.371-17.229c-1.181-1.181-14.914-1.602-17.55-.538m30.973 3.895c-1.516 1.061-2.218 2.572-2.208 4.75.036 7.496.982 7.693 36.985 7.693 30.749 0 34.18-.322 36.235-3.4 1.402-2.1.754-6.611-1.235-8.6-1.919-1.919-3.333-2-34.777-2-28.048 0-33.099.225-35 1.557M75.75 131.08c-1.447.843-1.75 2.475-1.75 9.435 0 9.994.482 10.485 10.279 10.485 8.544 0 9.721-1.292 9.721-10.674 0-9.1-1.212-10.338-10.079-10.296-3.531.017-7.208.489-8.171 1.05m29.905 4.749c-2.197 2.427-2.105 7.454.174 9.516 1.625 1.471 5.568 1.655 35.443 1.655 33.603 0 33.615-.001 35.171-2.223.856-1.222 1.557-3.147 1.557-4.277s-.701-3.055-1.557-4.277C174.887 134 174.881 134 141.098 134c-31.463 0-33.902.126-35.443 1.829M.336 159c0 4.125.177 5.813.392 3.75s.216-5.437 0-7.5c-.215-2.062-.392-.375-.392 3.75m74.864 6.2c-1.603 1.603-1.603 15.997 0 17.6.723.723 4.222 1.2 8.8 1.2s8.077-.477 8.8-1.2c1.862-1.862 1.573-15.285-.371-17.229s-15.367-2.233-17.229-.371M106 169c-1.111 1.111-2 3.333-2 5s.889 3.889 2 5c1.919 1.919 3.333 2 35 2s33.081-.081 35-2c2.662-2.662 2.572-7.389-.189-9.961-2.11-1.966-3.361-2.039-35-2.039-31.478 0-32.892.081-34.811 2"/><path fill="#fdfdfd" fill-opacity=".315" fill-rule="evenodd" d="M92.075 39.087c-30.208 5.927-52.987 31.732-53.06 60.108L39 104.891l-7.25 3.764c-9.351 4.854-20.326 15.575-24.584 24.013-8.827 17.494-9.092 33.801-.841 51.66 6.913 14.963 21.038 26.289 38.284 30.7 7.352 1.88 11.355 1.972 86.002 1.972 52.92 0 80.008-.355 83.59-1.097 9.184-1.901 19.677-7.595 26.374-14.311 10.133-10.161 15.211-23.181 15.833-40.592.187-5.225.133-7.25-.121-4.5l-.46 5-1.84-7.138c-1.012-3.926-2.959-9.346-4.326-12.045-5.428-10.71-17.696-21.167-29.009-24.725-5.504-1.732-5.562-1.79-4.861-4.922.39-1.744.701-6.995.692-11.67-.015-7.09-.461-9.452-2.688-14.235-3.715-7.977-7.105-12.113-13.305-16.228-10.764-7.145-25.63-8.367-37.222-3.059-5.05 2.311-5.748 2.416-6.552.98-2.571-4.595-10.085-12.555-16.256-17.221-13.773-10.416-32.831-15.201-48.385-12.15M75 98c-2.615 2.615-2.918 14.939-.429 17.429 1.954 1.953 16.353 2.247 18.229.371.724-.724 1.2-4.232 1.2-8.845C94 97.11 92.954 96 83.671 96c-5.338 0-7.071.4-8.671 2m30.655 3.829c-.91 1.006-1.655 3.455-1.655 5.443 0 6.68.265 6.728 37 6.728 36.891 0 37-.02 37-6.902 0-7.203.55-7.098-37.174-7.098-31.2 0-33.63.126-35.171 1.829m-31 30c-1.209 1.336-1.655 3.719-1.655 8.845C73 149.832 74.175 151 83.394 151 93.55 151 94 150.555 94 140.5c0-10.077-.434-10.5-10.779-10.5-5.425 0-7.267.393-8.566 1.829m31.568 2.728c-3.074 2.153-3.093 8.554-.034 11.404 2.107 1.964 3.367 2.039 34.065 2.039 36.869 0 37.695-.17 37.731-7.75.009-1.933-.795-4.06-1.985-5.25-1.919-1.919-3.333-2-34.777-2-28.048 0-33.099.225-35 1.557M.336 159c0 4.125.177 5.813.392 3.75s.216-5.437 0-7.5c-.215-2.062-.392-.375-.392 3.75m73.699 6.934c-.569 1.064-1.035 4.889-1.035 8.5C73 183.461 74.579 185 83.845 185 92.966 185 94 183.867 94 173.871c0-4.477-.481-7.952-1.2-8.671-.74-.74-4.37-1.2-9.465-1.2-7.148 0-8.405.261-9.3 1.934m31.62 2.895c-2.237 2.471-2.138 8.424.174 10.516 1.625 1.471 5.561 1.655 35.345 1.655 37.599 0 36.826.153 36.826-7.272 0-6.691-.205-6.728-37.568-6.728-30.818 0-33.237.127-34.777 1.829"/></svg>